<svg width="960" height="860" viewBox="0 0 960 860" fill="none" xmlns="http://www.w3.org/2000/svg">
  <rect width="960" height="860" rx="48" fill="url(#paint0_linear)"/>
  <circle cx="726" cy="170" r="90" fill="#26A6D1" fill-opacity="0.18"/>
  <circle cx="171" cy="705" r="122" fill="#0D5CAB" fill-opacity="0.14"/>
  <rect x="90" y="115" width="780" height="630" rx="36" fill="white" fill-opacity="0.86"/>
  <rect x="144" y="173" width="218" height="218" rx="28" fill="#E9F3FF"/>
  <path d="M253 216C253 204.954 261.954 196 273 196H289C300.046 196 309 204.954 309 216V256H349C360.046 256 369 264.954 369 276V292C369 303.046 360.046 312 349 312H309V352C309 363.046 300.046 372 289 372H273C261.954 372 253 363.046 253 352V312H213C201.954 312 193 303.046 193 292V276C193 264.954 201.954 256 213 256H253V216Z" fill="#0D5CAB"/>
  <rect x="405" y="173" width="410" height="86" rx="22" fill="#F4F8FD"/>
  <rect x="405" y="282" width="335" height="20" rx="10" fill="#D7E7FA"/>
  <rect x="405" y="322" width="264" height="20" rx="10" fill="#E5EEF9"/>
  <rect x="144" y="433" width="671" height="252" rx="28" fill="#0D294D"/>
  <rect x="184" y="473" width="198" height="172" rx="22" fill="#103B6E"/>
  <rect x="413" y="473" width="171" height="18" rx="9" fill="#63C5E1"/>
  <rect x="413" y="511" width="233" height="18" rx="9" fill="#265F9E"/>
  <rect x="413" y="559" width="348" height="16" rx="8" fill="#D3E7FF" fill-opacity="0.6"/>
  <rect x="413" y="593" width="296" height="16" rx="8" fill="#D3E7FF" fill-opacity="0.42"/>
  <rect x="413" y="627" width="178" height="16" rx="8" fill="#D3E7FF" fill-opacity="0.42"/>
  <path d="M243 566C243 536.177 267.177 512 297 512C326.823 512 351 536.177 351 566C351 595.823 326.823 620 297 620C267.177 620 243 595.823 243 566Z" fill="#26A6D1"/>
  <path d="M271 567L288.5 584.5L324 548" stroke="white" stroke-width="16" stroke-linecap="round" stroke-linejoin="round"/>
  <defs>
    <linearGradient id="paint0_linear" x1="92" y1="64" x2="848" y2="796" gradientUnits="userSpaceOnUse">
      <stop stop-color="#F5FBFF"/>
      <stop offset="1" stop-color="#D7E8FA"/>
    </linearGradient>
  </defs>
</svg>
